<?xml version="1.0" encoding="UTF-8" standalone="no"?>
<!-- Created with Inkscape (http://www.inkscape.org/) -->

<svg
   version="1.1"
   id="svg824"
   xml:space="preserve"
   width="524.03735"
   height="524.03735"
   viewBox="0 0 524.03735 524.03735"
   sodipodi:docname="LOGO_THE_CONG_VIETTEL_DO.pdf"
   inkscape:version="1.1 (c68e22c387, 2021-05-23)"
   xmlns:inkscape="http://www.inkscape.org/namespaces/inkscape"
   xmlns:sodipodi="http://sodipodi.sourceforge.net/DTD/sodipodi-0.dtd"
   xmlns="http://www.w3.org/2000/svg"
   xmlns:svg="http://www.w3.org/2000/svg"><defs
     id="defs828"><clipPath
       clipPathUnits="userSpaceOnUse"
       id="clipPath840"><path
         d="M 0,393.028 H 393.028 V 0 H 0 Z"
         id="path838" /></clipPath><clipPath
       clipPathUnits="userSpaceOnUse"
       id="clipPath924"><path
         d="m 196.514,54.7201 v 0 0 z"
         id="path922" /></clipPath></defs><sodipodi:namedview
     id="namedview826"
     pagecolor="#ffffff"
     bordercolor="#666666"
     borderopacity="1.0"
     inkscape:pageshadow="2"
     inkscape:pageopacity="0.0"
     inkscape:pagecheckerboard="0"
     showgrid="false"
     inkscape:zoom="1.528517"
     inkscape:cx="262.01868"
     inkscape:cy="322.86196"
     inkscape:window-width="1920"
     inkscape:window-height="1009"
     inkscape:window-x="-8"
     inkscape:window-y="-8"
     inkscape:window-maximized="1"
     inkscape:current-layer="g830" /><g
     id="g830"
     inkscape:groupmode="layer"
     inkscape:label="LOGO_THE_CONG_VIETTEL_DO"
     transform="matrix(1.3333333,0,0,-1.3333333,0,524.03733)"><g
       id="g834"><g
         id="g836"
         clip-path="url(#clipPath840)"><g
           id="g842"
           transform="translate(370.0939,196.5137)"><path
             d="m 0,0 c 0,95.866 -77.714,173.58 -173.58,173.58 -95.866,0 -173.58,-77.714 -173.58,-173.58 0,-95.866 77.714,-173.58 173.58,-173.58 C -77.714,-173.58 0,-95.866 0,0"
             style="fill:#ffffff;fill-opacity:1;fill-rule:nonzero;stroke:none"
             id="path844" /></g><g
           id="g846"
           transform="translate(361.7279,196.5137)"><path
             d="m 0,0 c 0,91.245 -73.969,165.214 -165.214,165.214 -91.245,0 -165.214,-73.969 -165.214,-165.214 0,-91.245 73.969,-165.214 165.214,-165.214 C -73.969,-165.214 0,-91.245 0,0"
             style="fill:#d82936;fill-opacity:1;fill-rule:nonzero;stroke:none"
             id="path848" /></g><g
           id="g850"
           transform="translate(361.7279,196.5137)"><path
             d="m 0,0 c 0,91.245 -73.969,165.214 -165.214,165.214 -91.245,0 -165.214,-73.969 -165.214,-165.214 0,-91.245 73.969,-165.214 165.214,-165.214 C -73.969,-165.214 0,-91.245 0,0"
             style="fill:#ea1a2c;fill-opacity:1;fill-rule:nonzero;stroke:none"
             id="path852" /></g><g
           id="g854"
           transform="translate(196.5134,352.8677)"><path
             d="m 0,0 c -86.213,0 -156.354,-70.141 -156.354,-156.354 0,-86.214 70.141,-156.355 156.354,-156.355 86.214,0 156.354,70.141 156.354,156.355 C 156.354,-70.141 86.214,0 0,0 m 0,-316.297 c -88.193,0 -159.942,71.749 -159.942,159.943 0,88.193 71.749,159.942 159.942,159.942 88.193,0 159.943,-71.749 159.943,-159.942 0,-88.194 -71.75,-159.943 -159.943,-159.943"
             style="fill:#ffffff;fill-opacity:1;fill-rule:nonzero;stroke:none"
             id="path856" /></g><g
           id="g858"
           transform="translate(100.8847,94.3287)"><path
             d="m 0,0 7.907,9.306 c 1.002,1.181 2.086,1.15 3.11,0.281 L 18.561,3.178 16.689,0.974 11.048,5.771 C 10.498,6.24 10.148,6.209 9.682,5.659 L 8.438,4.198 13.249,0.109 11.377,-2.088 6.568,1.997 2.828,-2.404 Z"
             style="fill:#ffffff;fill-opacity:1;fill-rule:nonzero;stroke:none"
             id="path860" /></g><g
           id="g862"
           transform="translate(120.4597,82.6289)"><path
             d="M 0,0 C 2.518,-1.654 3.842,-1.216 5.711,1.633 7.581,4.478 7.458,5.866 4.939,7.523 2.421,9.173 1.095,8.739 -0.773,5.89 -2.644,3.045 -2.518,1.657 0,0 M 8.884,-0.456 C 5.577,-5.491 3.155,-5.529 -1.586,-2.414 -6.33,0.701 -7.255,2.94 -3.947,7.975 -0.65,12.996 1.782,13.052 6.526,9.934 11.267,6.822 12.182,4.566 8.884,-0.456"
             style="fill:#ffffff;fill-opacity:1;fill-rule:nonzero;stroke:none"
             id="path864" /></g><g
           id="g866"
           transform="translate(137.312,73.1927)"><path
             d="M 0,0 C 2.724,-1.286 3.974,-0.666 5.424,2.414 6.875,5.491 6.556,6.847 3.833,8.133 1.111,9.415 -0.14,8.795 -1.591,5.718 -3.04,2.639 -2.723,1.282 0,0 M 8.856,0.795 C 6.29,-4.65 3.9,-5.028 -1.23,-2.614 c -5.13,2.418 -6.358,4.503 -3.791,9.948 2.558,5.427 4.954,5.827 10.084,3.409 5.13,-2.418 6.351,-4.52 3.793,-9.948"
             style="fill:#ffffff;fill-opacity:1;fill-rule:nonzero;stroke:none"
             id="path868" /></g><g
           id="g870"
           transform="translate(151.1422,64.6815)"><path
             d="M 0,0 3.543,11.003 -1.563,12.649 -0.678,15.4 13.075,10.971 12.189,8.217 7.082,9.864 3.536,-1.139 Z"
             style="fill:#ffffff;fill-opacity:1;fill-rule:nonzero;stroke:none"
             id="path872" /></g><g
           id="g874"
           transform="translate(168.853,68.7496)"><path
             d="M 0,0 4.378,-0.816 C 5.373,-1.002 5.85,-0.69 6.06,0.424 6.248,1.437 5.927,1.959 4.911,2.151 L 1.465,2.793 C 0.755,2.926 0.513,2.758 0.38,2.05 Z m -0.878,-4.702 c -0.154,-0.813 0.013,-1.052 0.824,-1.206 l 3.386,-0.63 c 1.095,-0.204 1.642,0.133 1.849,1.25 0.21,1.115 -0.179,1.63 -1.192,1.819 l -4.481,0.834 z M 8.844,-6.349 C 8.394,-8.763 7.42,-10.155 4.541,-9.618 l -7.624,1.426 c -1.32,0.245 -2.029,1.047 -1.747,2.568 l 1.838,9.836 c 0.282,1.52 1.238,2.036 2.559,1.79 L 6.989,4.615 C 9.441,4.159 10.265,2.723 9.762,0.028 9.485,-1.454 8.748,-2.596 7.136,-2.568 L 7.122,-2.652 c 1.776,-0.6 2.064,-1.872 1.722,-3.697"
             style="fill:#ffffff;fill-opacity:1;fill-rule:nonzero;stroke:none"
             id="path876" /></g><g
           id="g878"
           transform="translate(186.6445,63.7565)"><path
             d="M 0,0 4.268,-0.228 2.677,4.447 C 2.607,4.678 2.558,4.906 2.413,4.916 2.267,4.923 2.172,4.699 2.078,4.478 Z m -0.338,6.84 c 0.534,1.107 1.161,1.633 2.934,1.538 1.299,-0.07 2.233,-0.41 2.733,-1.84 l 4.717,-13.192 -3.896,0.207 -1.125,3.367 -6.08,0.322 -1.475,-3.227 -3.875,0.207 z"
             style="fill:#ffffff;fill-opacity:1;fill-rule:nonzero;stroke:none"
             id="path880" /></g><g
           id="g882"
           transform="translate(202.3563,57.4634)"><path
             d="M 0,0 C -1.339,-0.095 -2.229,0.501 -2.337,2.046 L -3.21,14.254 0.494,14.52 1.247,3.959 C 1.3,3.238 1.566,3.006 2.286,3.059 l 7.409,0.529 0.207,-2.88 z"
             style="fill:#ffffff;fill-opacity:1;fill-rule:nonzero;stroke:none"
             id="path884" /></g><g
           id="g886"
           transform="translate(218.1732,59.1207)"><path
             d="M 0,0 C -1.317,-0.245 -2.269,0.245 -2.554,1.766 L -4.807,13.785 -1.158,14.471 0.79,4.072 C 0.923,3.364 1.212,3.164 1.922,3.297 L 9.219,4.664 9.752,1.829 Z"
             style="fill:#ffffff;fill-opacity:1;fill-rule:nonzero;stroke:none"
             id="path888" /></g><g
           id="g890"
           transform="translate(241.6814,65.1475)"><path
             d="m 0,0 c -4.574,-1.594 -6.742,0.487 -8.234,4.772 -1.495,4.282 -1.093,7.264 3.483,8.858 l 5.629,1.963 0.949,-2.726 -3.894,-1.356 C -5.182,10.424 -5.806,9.331 -4.653,6.023 -3.499,2.712 -2.332,2.246 0.785,3.332 l 4.089,1.423 0.95,-2.726 z"
             style="fill:#ffffff;fill-opacity:1;fill-rule:nonzero;stroke:none"
             id="path892" /></g><g
           id="g894"
           transform="translate(253.4127,69.7974)"><path
             d="m 0,0 c -1.209,-0.582 -2.257,-0.354 -2.929,1.041 l -5.305,11.034 3.349,1.608 4.589,-9.541 C 0.018,3.49 0.349,3.374 0.999,3.686 l 6.699,3.22 1.251,-2.603 z"
             style="fill:#ffffff;fill-opacity:1;fill-rule:nonzero;stroke:none"
             id="path896" /></g><g
           id="g898"
           transform="translate(270.5576,85.8315)"><path
             d="M 0,0 -4.709,7.369 -1.58,9.37 3.227,1.843 C 5.561,-1.808 4.18,-4.282 0.617,-6.559 -2.947,-8.833 -5.771,-9.051 -8.105,-5.4 l -4.807,7.523 3.125,2.001 4.711,-7.369 c 1.111,-1.738 2.399,-1.99 4.137,-0.883 C 0.799,-3.013 1.111,-1.738 0,0"
             style="fill:#ffffff;fill-opacity:1;fill-rule:nonzero;stroke:none"
             id="path900" /></g><g
           id="g902"
           transform="translate(281.2693,91.4238)"><path
             d="M 0,0 C 0.533,-0.631 0.823,-0.655 1.454,-0.123 L 4.086,2.099 C 4.935,2.817 5.018,3.452 4.285,4.32 3.555,5.186 2.912,5.21 2.127,4.545 L -1.356,1.605 Z M -3.087,3.655 0.317,6.528 C 1.088,7.18 1.151,7.744 0.419,8.613 -0.245,9.398 -0.855,9.482 -1.643,8.816 L -4.32,6.553 C -4.871,6.087 -4.895,5.796 -4.431,5.245 Z M 7.425,6.486 C 9.009,4.611 9.471,2.975 7.234,1.086 L 1.31,-3.917 C 0.287,-4.783 -0.785,-4.825 -1.784,-3.641 L -8.238,3.998 C -9.237,5.182 -9.03,6.244 -8.005,7.11 l 5.766,4.87 c 1.906,1.612 3.536,1.346 5.308,-0.753 C 4.04,10.077 4.457,8.785 3.418,7.555 L 3.471,7.492 c 1.59,0.991 2.756,0.41 3.954,-1.006"
             style="fill:#ffffff;fill-opacity:1;fill-rule:nonzero;stroke:none"
             id="path904" /></g><g
           id="g906"
           transform="translate(306.5429,196.5137)"><path
             d="m 0,0 c 0,60.767 -49.262,110.029 -110.029,110.029 -60.768,0 -110.029,-49.262 -110.029,-110.029 0,-60.767 49.261,-110.029 110.029,-110.029 C -49.262,-110.029 0,-60.767 0,0"
             style="fill:#ffffff;fill-opacity:1;fill-rule:nonzero;stroke:none"
             id="path908" /></g><g
           id="g910"
           transform="translate(64.1825,207.4762)"><path
             d="M 0,0 2.705,-8.325 C 2.807,-8.639 3.1,-8.852 3.43,-8.852 h 8.753 c 0.739,0 1.046,-0.945 0.449,-1.38 L 5.55,-15.376 c -0.267,-0.195 -0.379,-0.539 -0.277,-0.853 l 2.705,-8.325 c 0.228,-0.703 -0.576,-1.287 -1.174,-0.853 l -7.081,5.145 c -0.268,0.194 -0.63,0.194 -0.897,0 l -7.081,-5.145 c -0.598,-0.434 -1.402,0.15 -1.174,0.853 l 2.705,8.325 c 0.102,0.314 -0.01,0.658 -0.277,0.853 l -7.082,5.144 c -0.597,0.435 -0.29,1.38 0.449,1.38 h 8.753 c 0.33,0 0.623,0.213 0.725,0.527 L -1.451,0 C -1.223,0.703 -0.228,0.703 0,0"
             style="fill:#ffffff;fill-opacity:1;fill-rule:evenodd;stroke:none"
             id="path912" /></g><g
           id="g914"
           transform="translate(330.2906,207.4762)"><path
             d="M 0,0 2.705,-8.325 C 2.807,-8.639 3.1,-8.852 3.43,-8.852 h 8.753 c 0.739,0 1.046,-0.945 0.449,-1.38 L 5.55,-15.376 c -0.267,-0.195 -0.379,-0.539 -0.277,-0.853 l 2.705,-8.325 c 0.228,-0.703 -0.576,-1.287 -1.174,-0.853 l -7.081,5.145 c -0.267,0.194 -0.629,0.194 -0.897,0 l -7.081,-5.145 c -0.598,-0.434 -1.402,0.15 -1.174,0.853 l 2.705,8.325 c 0.102,0.314 -0.01,0.658 -0.277,0.853 l -7.082,5.144 c -0.597,0.435 -0.29,1.38 0.449,1.38 h 8.753 c 0.33,0 0.623,0.213 0.725,0.527 L -1.451,0 C -1.223,0.703 -0.228,0.703 0,0"
             style="fill:#ffffff;fill-opacity:1;fill-rule:evenodd;stroke:none"
             id="path916" /></g><g
           id="g918"><g
             id="g920" /><g
             id="g928"><g
               clip-path="url(#clipPath924)"
               id="g926" /></g></g><g
           id="g930"
           transform="translate(194.1226,233.181)"><path
             d="m 0,0 -31.741,-23.062 c -1.426,-1.036 -2.023,-2.872 -1.478,-4.548 l 12.123,-37.314 c 0.545,-1.677 2.107,-2.812 3.869,-2.812 h 39.235 c 1.763,0 3.325,1.135 3.87,2.812 l 12.124,37.314 c 0.545,1.676 -0.052,3.512 -1.478,4.548 L 4.783,0 C 3.357,1.036 1.426,1.036 0,0"
             style="fill:#ea1a2c;fill-opacity:1;fill-rule:nonzero;stroke:none"
             id="path932" /></g><g
           id="g934"
           transform="translate(228.3744,245.8542)"><path
             d="m 0,0 c -1.977,4.566 -4.228,8.818 -7.177,12.769 -2.89,3.951 -6.279,7.555 -10.172,10.554 -7.83,5.99 -17.453,9.619 -27.336,11.23 9.969,-0.952 19.946,-3.913 28.512,-9.59 8.512,-5.718 15.235,-14.069 19.808,-23.207 2.33,-4.518 4.54,-8.915 7.057,-13.173 2.488,-4.235 5.202,-8.333 8.304,-11.902 0.436,-0.499 1.133,-1.157 1.737,-1.703 0.552,-0.499 1.432,-0.263 1.654,0.447 0.364,1.163 0.85,2.751 1.12,3.772 3.193,12.103 3.372,25.065 0.495,37.427 2.048,1.536 3.228,4.166 2.579,7.042 -0.564,2.497 -2.585,4.531 -5.082,5.092 -4.484,1.006 -8.449,-2.383 -8.437,-6.689 0.01,-3.652 2.883,-6.6 6.484,-6.793 3.196,-10.934 3.821,-22.691 1.754,-34.058 -0.241,0.351 -0.471,0.701 -0.646,1.022 -4.886,8.974 -6.47,19.194 -9.474,28.849 -2.807,9.024 -7.569,16.665 -15.254,22.336 -2.504,1.848 -5.206,3.423 -8.031,4.727 -6.469,2.986 -13.534,4.613 -20.633,5.068 -2.572,0.165 -5.153,0.203 -7.73,0.116 -7.311,-0.248 -14.589,-1.502 -21.563,-3.712 -4.911,-1.557 -9.528,-3.65 -14.052,-6.018 -0.939,-0.492 -0.591,-1.896 0.469,-1.918 4.014,-0.082 8.013,-0.638 11.97,-1.298 0.791,-0.132 1.581,-0.275 2.368,-0.429 1.148,-0.224 2.291,-0.473 3.428,-0.747 3.118,-0.75 6.201,-1.651 9.214,-2.751 1.856,-0.678 3.683,-1.435 5.469,-2.28 4.82,-2.282 9.437,-5.22 13.226,-8.996 3.921,-3.907 6.929,-8.513 10.124,-13.003 3.261,-4.582 6.878,-9.027 11.316,-12.523 4.793,-3.775 10.165,-6.891 15.789,-9.34 0.905,-0.394 1.776,0.576 1.295,1.438 C 5.257,-12.272 2.615,-6.065 0,0"
             style="fill:#ea1a2c;fill-opacity:1;fill-rule:nonzero;stroke:none"
             id="path936" /></g><g
           id="g938"
           transform="translate(253.2849,181.4595)"><path
             d="m 0,0 c 3.731,3.291 7.08,6.746 9.926,10.772 2.865,3.969 5.245,8.306 6.894,12.935 3.277,9.298 3.755,19.572 2.233,29.468 C 21.228,43.4 21.495,32.996 18.743,23.095 15.936,13.233 10.07,4.259 2.793,-2.914 -0.783,-6.527 -4.283,-9.987 -7.554,-13.697 c -3.259,-3.675 -6.318,-7.522 -8.754,-11.575 -0.34,-0.569 -0.75,-1.436 -1.083,-2.179 -0.303,-0.678 0.193,-1.442 0.936,-1.434 1.22,0.013 2.88,0.041 3.934,0.1 12.497,0.704 24.88,4.539 35.748,11.095 2.094,-1.473 4.96,-1.783 7.495,-0.276 2.2,1.307 3.51,3.858 3.272,6.406 -0.429,4.575 -4.877,7.299 -8.969,5.957 -3.47,-1.138 -5.386,-4.781 -4.457,-8.266 -9.411,-6.418 -20.4,-10.646 -31.849,-12.193 0.26,0.338 0.522,0.666 0.773,0.93 7.025,7.421 16.255,12.086 24.509,17.926 7.715,5.458 13.51,12.348 16.529,21.41 0.984,2.952 1.646,6.009 2.014,9.098 0.841,7.076 0.205,14.297 -1.556,21.189 -0.638,2.498 -1.399,4.964 -2.279,7.387 C 26.214,58.755 22.772,65.29 18.516,71.239 15.518,75.429 12.101,79.174 8.45,82.744 7.692,83.485 6.464,82.72 6.771,81.705 7.933,77.863 8.64,73.888 9.235,69.92 9.354,69.127 9.462,68.332 9.559,67.536 9.7,66.375 9.817,65.211 9.908,64.045 10.159,60.847 10.254,57.636 10.139,54.431 10.068,52.456 9.913,50.485 9.661,48.525 8.979,43.236 7.612,37.937 5.192,33.167 2.688,28.23 -0.764,23.946 -4.046,19.52 c -3.35,-4.517 -6.46,-9.331 -8.414,-14.632 -2.109,-5.725 -3.412,-11.797 -4.003,-17.902 -0.095,-0.982 1.096,-1.511 1.768,-0.787 C -10.047,-8.792 -4.96,-4.361 0,0"
             style="fill:#ea1a2c;fill-opacity:1;fill-rule:nonzero;stroke:none"
             id="path940" /></g><g
           id="g942"
           transform="translate(199.7395,137.8692)"><path
             d="m 0,0 c 4.283,-2.532 8.604,-4.649 13.312,-6.112 4.661,-1.497 9.521,-2.421 14.432,-2.559 9.856,-0.243 19.775,2.477 28.716,6.982 -8.624,-5.089 -18.436,-8.558 -28.703,-9 -10.247,-0.378 -20.595,2.427 -29.665,7.132 -4.541,2.285 -8.913,4.544 -13.453,6.508 -4.502,1.965 -9.106,3.685 -13.714,4.749 -0.646,0.148 -1.597,0.27 -2.406,0.357 -0.739,0.079 -1.312,-0.629 -1.075,-1.334 0.389,-1.155 0.929,-2.726 1.311,-3.71 4.531,-11.668 12.005,-22.26 21.598,-30.57 -0.753,-2.446 -0.163,-5.268 2.054,-7.213 1.923,-1.688 4.754,-2.147 7.104,-1.132 4.218,1.822 5.434,6.894 2.894,10.371 -2.155,2.948 -6.212,3.645 -9.239,1.684 -9.013,6.966 -16.429,16.112 -21.438,26.522 0.401,-0.142 0.794,-0.29 1.123,-0.447 9.228,-4.388 16.517,-11.725 24.622,-17.771 7.575,-5.65 15.919,-9.033 25.47,-9.104 3.112,-0.023 6.224,0.292 9.275,0.897 6.989,1.386 13.661,4.223 19.672,8.027 2.178,1.379 4.288,2.865 6.321,4.45 5.77,4.498 10.92,9.791 15.263,15.678 3.059,4.146 5.564,8.552 7.831,13.128 0.471,0.95 -0.636,1.881 -1.506,1.276 C 76.503,16.516 72.941,14.615 69.351,12.823 68.634,12.465 67.912,12.117 67.184,11.778 66.124,11.285 65.053,10.815 63.972,10.367 61.008,9.141 57.984,8.058 54.9,7.177 53,6.635 51.077,6.173 49.135,5.807 43.895,4.821 38.432,4.484 33.148,5.311 27.68,6.167 22.538,8.126 17.315,9.88 11.983,11.671 6.444,13.141 0.798,13.36 c -6.096,0.237 -12.273,-0.4 -18.262,-1.724 -0.964,-0.213 -1.099,-1.51 -0.203,-1.925 C -11.466,6.839 -5.68,3.37 0,0"
             style="fill:#ea1a2c;fill-opacity:1;fill-rule:nonzero;stroke:none"
             id="path944" /></g><g
           id="g946"
           transform="translate(141.7364,175.3237)"><path
             d="m 0,0 c -1.085,-4.856 -1.763,-9.619 -1.699,-14.549 0.016,-4.895 0.639,-9.803 2.026,-14.517 2.814,-9.449 8.466,-18.041 15.514,-25.153 -7.505,6.63 -13.836,14.89 -17.43,24.517 -3.525,9.629 -4.055,20.337 -2.384,30.418 0.77,5.025 1.568,9.88 2.033,14.805 0.477,4.889 0.69,9.799 0.279,14.51 -0.059,0.66 -0.237,1.602 -0.405,2.399 -0.153,0.728 -1.003,1.054 -1.6,0.61 -0.979,-0.727 -2.306,-1.726 -3.123,-2.393 -9.698,-7.915 -17.461,-18.296 -22.4,-29.988 -2.56,-0.039 -5.061,-1.473 -6.226,-4.182 -1.011,-2.351 -0.572,-5.185 1.119,-7.106 3.036,-3.449 8.236,-3.038 10.757,0.453 2.139,2.959 1.547,7.033 -1.253,9.306 3.841,10.725 10.247,20.604 18.599,28.585 -0.011,-0.426 -0.03,-0.845 -0.078,-1.207 -1.321,-10.132 -6.047,-19.331 -9.292,-28.908 -3.033,-8.95 -3.672,-17.931 -0.787,-27.037 0.939,-2.966 2.199,-5.828 3.718,-8.544 3.479,-6.218 8.238,-11.687 13.713,-16.228 1.985,-1.645 4.05,-3.193 6.186,-4.637 6.061,-4.097 12.686,-7.36 19.627,-9.671 4.888,-1.628 9.853,-2.648 14.905,-3.391 1.049,-0.154 1.593,1.186 0.748,1.827 -3.198,2.426 -6.107,5.226 -8.921,8.086 -0.562,0.572 -1.117,1.151 -1.663,1.739 -0.797,0.856 -1.575,1.729 -2.334,2.619 -2.082,2.439 -4.047,4.981 -5.838,7.642 -1.103,1.639 -2.136,3.325 -3.084,5.059 -2.558,4.679 -4.567,9.77 -5.413,15.051 -0.875,5.466 -0.601,10.961 -0.547,16.471 C 14.802,-7.79 14.489,-2.068 12.953,3.369 11.295,9.24 8.779,14.919 5.67,20.205 5.169,21.056 3.894,20.783 3.777,19.803 2.961,13.018 1.449,6.444 0,0"
             style="fill:#ea1a2c;fill-opacity:1;fill-rule:nonzero;stroke:none"
             id="path948" /></g><g
           id="g950"
           transform="translate(159.4337,242.062)"><path
             d="m 0,0 c -4.953,-0.469 -9.693,-1.296 -14.362,-2.88 -4.651,-1.528 -9.126,-3.637 -13.18,-6.413 -8.117,-5.596 -14.542,-13.626 -19.128,-22.527 3.986,9.186 9.885,17.76 17.931,24.153 8.068,6.328 18.089,10.141 28.192,11.666 5.017,0.821 9.882,1.563 14.709,2.642 4.797,1.058 9.533,2.372 13.886,4.219 0.609,0.26 1.451,0.721 2.156,1.126 0.645,0.371 0.692,1.28 0.086,1.711 -0.994,0.706 -2.354,1.659 -3.241,2.231 -10.524,6.777 -22.796,10.952 -35.442,12.036 -0.828,2.422 -2.965,4.358 -5.901,4.629 -2.549,0.235 -5.108,-1.058 -6.413,-3.26 -2.342,-3.953 -0.344,-8.771 3.755,-10.091 3.475,-1.119 7.167,0.702 8.464,4.068 C 2.898,22.971 14.273,19.932 24.445,14.454 24.036,14.333 23.632,14.222 23.273,14.155 13.229,12.281 3.019,13.933 -7.092,14.06 c -9.449,0.119 -18.188,-2.049 -25.956,-7.606 -2.531,-1.811 -4.864,-3.893 -6.977,-6.177 -4.839,-5.23 -8.57,-11.446 -11.196,-18.056 -0.952,-2.396 -1.786,-4.839 -2.499,-7.317 -2.023,-7.03 -3.08,-14.339 -3.133,-21.655 -0.037,-5.151 0.526,-10.189 1.381,-15.223 0.178,-1.046 1.621,-1.148 1.969,-0.147 1.319,3.792 3.083,7.423 4.934,10.983 0.37,0.712 0.749,1.418 1.139,2.119 0.568,1.023 1.158,2.033 1.77,3.03 1.676,2.734 3.486,5.388 5.464,7.913 1.218,1.556 2.502,3.06 3.858,4.497 3.66,3.878 7.881,7.362 12.642,9.798 4.928,2.522 10.239,3.959 15.495,5.611 5.366,1.685 10.712,3.752 15.408,6.892 5.071,3.391 9.695,7.538 13.761,12.13 0.655,0.739 0.001,1.867 -0.967,1.676 C 13.296,1.207 6.576,0.613 0,0"
             style="fill:#ea1a2c;fill-opacity:1;fill-rule:nonzero;stroke:none"
             id="path952" /></g><g
           id="g954"
           transform="translate(105.6071,285.1866)"><path
             d="m 0,0 -2.476,-2.614 -8.131,7.702 -3.576,-3.776 -2.033,1.926 9.627,10.164 2.033,-1.925 -3.576,-3.775 z"
             style="fill:#ffffff;fill-opacity:1;fill-rule:nonzero;stroke:none"
             id="path956" /></g><g
           id="g958"
           transform="translate(111.2575,308.9912)"><path
             d="m 0,0 8.973,-10.747 -2.763,-2.308 -3.743,4.483 -4.713,-3.934 3.743,-4.483 -2.764,-2.308 -8.972,10.747 2.762,2.308 3.436,-4.115 4.713,3.935 -3.435,4.114 z"
             style="fill:#ffffff;fill-opacity:1;fill-rule:nonzero;stroke:none"
             id="path960" /></g><g
           id="g962"
           transform="translate(121.7331,321.002)"><path
             d="m 0,0 -1.439,-0.943 -0.362,0.552 c -0.116,0.178 -0.2,0.335 -0.248,0.471 -0.05,0.135 -0.072,0.268 -0.069,0.397 0.003,0.128 0.031,0.268 0.086,0.416 0.054,0.147 0.137,0.32 0.245,0.519 0.034,0.069 0.074,0.149 0.122,0.234 0.047,0.087 0.086,0.172 0.119,0.257 0.031,0.085 0.052,0.159 0.06,0.219 0.007,0.062 -0.013,0.091 -0.061,0.092 l -1.941,-1.272 -0.92,1.406 1.99,1.304 c 0.477,0.297 0.934,0.392 1.375,0.292 C -0.602,3.842 -0.261,3.608 -0.02,3.24 0.142,2.994 0.224,2.681 0.227,2.3 0.229,1.919 0.107,1.465 -0.137,0.938 -0.171,0.868 -0.2,0.797 -0.225,0.726 -0.249,0.652 -0.288,0.585 -0.34,0.518 Z m 2.436,-3.353 1.491,-2.275 -6.023,-3.946 c -0.289,-0.191 -0.454,-0.382 -0.495,-0.576 -0.04,-0.194 0.034,-0.436 0.225,-0.726 l 1.063,-1.622 6.657,4.362 1.425,-2.175 -6.657,-4.363 1.173,-1.789 c 0.189,-0.291 0.382,-0.455 0.576,-0.496 0.193,-0.04 0.436,0.034 0.725,0.225 l 6.09,3.99 1.491,-2.276 -8.114,-5.317 c -1.182,-0.774 -2.164,-0.564 -2.946,0.629 l -5.316,8.113 c -0.79,1.205 -0.594,2.195 0.589,2.969 z M -0.193,-4.12 -3.22,-3.808 C -3.445,-3.78 -3.637,-3.817 -3.792,-3.92 -3.938,-4.015 -4.048,-4.175 -4.123,-4.4 l -0.905,-2.888 -1.876,0.563 1.226,3.603 c 0.133,0.356 0.388,0.66 0.768,0.909 0.401,0.263 0.781,0.376 1.139,0.34 l 3.792,-0.313 z"
             style="fill:#ffffff;fill-opacity:1;fill-rule:nonzero;stroke:none"
             id="path964" /></g><g
           id="g966"
           transform="translate(148.3386,314.1133)"><path
             d="m 0,0 -5.422,-2.523 c -2.03,-0.945 -3.693,-1.079 -4.986,-0.402 -1.293,0.678 -2.436,2.08 -3.426,4.208 -0.989,2.127 -1.328,3.904 -1.014,5.329 0.315,1.426 1.488,2.612 3.518,3.557 l 5.24,2.439 1.182,-2.538 -3.626,-1.689 c -1.463,-0.68 -2.333,-1.394 -2.611,-2.141 -0.277,-0.746 -0.061,-1.881 0.648,-3.405 0.709,-1.523 1.438,-2.419 2.188,-2.687 0.75,-0.268 1.857,-0.062 3.319,0.619 l 3.808,1.772 z"
             style="fill:#ffffff;fill-opacity:1;fill-rule:nonzero;stroke:none"
             id="path968" /></g><g
           id="g970"
           transform="translate(149.7477,325.6973)"><path
             d="m 0,0 c -0.296,-0.748 -0.178,-1.911 0.355,-3.489 0.535,-1.58 1.15,-2.578 1.847,-2.997 0.698,-0.419 1.736,-0.396 3.111,0.07 1.377,0.465 2.216,1.075 2.516,1.832 C 8.13,-3.828 8.014,-2.662 7.48,-1.081 6.946,0.497 6.331,1.496 5.634,1.915 4.936,2.333 3.898,2.31 2.522,1.845 1.146,1.379 0.304,0.764 0,0 M 4.167,6.032 1.317,7.095 C 1.106,7.178 0.912,7.19 0.735,7.131 0.571,7.075 0.424,6.948 0.294,6.749 L -1.308,4.182 -2.982,5.198 -0.89,8.376 c 0.218,0.313 0.542,0.541 0.972,0.687 0.454,0.154 0.851,0.169 1.189,0.043 L 4.861,7.85 Z M -1.595,3.093 c 0.783,0.474 1.856,0.943 3.22,1.405 1.364,0.46 2.501,0.739 3.412,0.836 C 5.947,5.43 6.781,5.325 7.54,5.019 8.298,4.712 8.941,4.162 9.47,3.37 9.997,2.577 10.496,1.485 10.966,0.097 c 0.47,-1.39 0.735,-2.56 0.797,-3.51 0.06,-0.951 -0.117,-1.781 -0.532,-2.491 -0.414,-0.71 -1.013,-1.301 -1.797,-1.77 C 8.649,-8.143 7.575,-8.608 6.211,-9.068 4.847,-9.53 3.71,-9.812 2.802,-9.916 1.894,-10.018 1.06,-9.913 0.3,-9.6 c -0.76,0.314 -1.405,0.866 -1.934,1.659 -0.528,0.793 -1.026,1.882 -1.496,3.273 -0.471,1.389 -0.735,2.559 -0.797,3.51 -0.06,0.95 0.118,1.777 0.533,2.481 0.417,0.704 1.017,1.294 1.799,1.77"
             style="fill:#ffffff;fill-opacity:1;fill-rule:nonzero;stroke:none"
             id="path972" /></g><g
           id="g974"
           transform="translate(175.9655,336.1499)"><path
             d="m 0,0 2.344,-11.687 c 0.117,-0.589 0.027,-1.14 -0.271,-1.656 -0.298,-0.515 -0.897,-0.863 -1.799,-1.044 -1.19,-0.238 -2.143,0.007 -2.86,0.733 l -6.97,6.986 c -0.188,0.192 -0.335,0.279 -0.439,0.258 -0.157,-0.032 -0.209,-0.178 -0.156,-0.439 l 1.824,-9.1 -2.981,-0.596 -2.351,11.725 c -0.145,0.72 -0.015,1.307 0.391,1.762 0.405,0.455 0.993,0.76 1.764,0.915 1.164,0.233 2.086,0.011 2.766,-0.67 l 7.025,-7.056 c 0.016,-0.011 0.045,-0.042 0.09,-0.094 0.044,-0.053 0.078,-0.086 0.102,-0.102 0.023,-0.016 0.058,-0.033 0.102,-0.052 0.044,-0.017 0.086,-0.022 0.125,-0.014 0.145,0.028 0.194,0.153 0.149,0.376 l -1.836,9.157 z"
             style="fill:#ffffff;fill-opacity:1;fill-rule:nonzero;stroke:none"
             id="path976" /></g><g
           id="g978"
           transform="translate(192.7614,334.7774)"><path
             d="m 0,0 -5.724,-0.423 c -1.41,-0.105 -2.359,-0.469 -2.848,-1.093 -0.489,-0.625 -0.673,-1.748 -0.553,-3.371 0.12,-1.622 0.468,-2.706 1.043,-3.251 0.575,-0.546 1.567,-0.767 2.978,-0.662 l 1.515,0.112 c 0.346,0.025 0.583,0.113 0.713,0.264 0.129,0.15 0.181,0.396 0.155,0.742 l -0.249,3.372 3.59,0.266 0.367,-4.968 c 0.106,-1.422 -0.547,-2.186 -1.957,-2.29 l -5.304,-0.392 c -2.235,-0.165 -3.836,0.298 -4.806,1.388 -0.971,1.093 -1.542,2.808 -1.714,5.148 -0.174,2.341 0.139,4.123 0.938,5.345 0.798,1.222 2.314,1.916 4.548,2.081 l 7.101,0.525 z"
             style="fill:#ffffff;fill-opacity:1;fill-rule:nonzero;stroke:none"
             id="path980" /></g><g
           id="g982"
           transform="translate(200.5163,327.5342)"><path
             d="M 0,0 0.158,2.594 7.983,2.117 7.825,-0.479 Z"
             style="fill:#ffffff;fill-opacity:1;fill-rule:nonzero;stroke:none"
             id="path984" /></g><g
           id="g986"
           transform="translate(219.86,335.5752)"><path
             d="m 0,0 1.646,-10.929 c 0.026,-0.209 0.099,-0.326 0.216,-0.349 0.091,-0.018 0.202,0.062 0.333,0.24 L 7.887,-1.563 11.653,-2.31 4.38,-13.388 C 4.03,-13.917 3.613,-14.303 3.131,-14.547 2.646,-14.791 2,-14.833 1.189,-14.672 c -1.399,0.277 -2.226,1.08 -2.478,2.409 l -2.478,13.01 z"
             style="fill:#ffffff;fill-opacity:1;fill-rule:nonzero;stroke:none"
             id="path988" /></g><g
           id="g990"
           transform="translate(232.5671,318.2329)"><path
             d="M 0,0 -3.465,0.976 0.332,14.452 3.797,13.475 Z"
             style="fill:#ffffff;fill-opacity:1;fill-rule:nonzero;stroke:none"
             id="path992" /></g><g
           id="g994"
           transform="translate(250.2155,326.9478)"><path
             d="M 0,0 -0.928,-2.557 -7.695,-0.1 C -8.021,0.019 -8.274,0.036 -8.454,-0.048 -8.633,-0.132 -8.781,-0.337 -8.9,-0.663 l -0.663,-1.823 7.483,-2.716 -0.887,-2.445 -7.482,2.717 -0.731,-2.011 c -0.118,-0.327 -0.135,-0.579 -0.051,-0.758 0.084,-0.18 0.289,-0.33 0.614,-0.447 l 6.843,-2.484 -0.928,-2.558 -9.118,3.311 c -1.328,0.482 -1.749,1.394 -1.263,2.735 l 3.312,9.118 c 0.49,1.354 1.4,1.789 2.728,1.307 z"
             style="fill:#ffffff;fill-opacity:1;fill-rule:nonzero;stroke:none"
             id="path996" /></g><g
           id="g998"
           transform="translate(253.9128,309.7364)"><path
             d="m 0,0 -3.234,1.581 4.921,10.061 -4.671,2.285 1.23,2.515 12.576,-6.15 -1.23,-2.517 -4.671,2.286 z"
             style="fill:#ffffff;fill-opacity:1;fill-rule:nonzero;stroke:none"
             id="path1000" /></g><g
           id="g1002"
           transform="translate(266.3122,302.5518)"><path
             d="M 0,0 -3.036,1.935 2.981,11.38 -1.404,14.174 0.1,16.536 11.907,9.014 10.403,6.652 6.018,9.446 Z"
             style="fill:#ffffff;fill-opacity:1;fill-rule:nonzero;stroke:none"
             id="path1004" /></g><g
           id="g1006"
           transform="translate(289.1325,302.9366)"><path
             d="M 0,0 -1.694,-2.128 -7.327,2.357 C -7.599,2.573 -7.832,2.671 -8.028,2.648 -8.226,2.626 -8.432,2.479 -8.647,2.207 l -1.209,-1.517 6.227,-4.959 -1.62,-2.034 -6.227,4.959 -1.333,-1.674 c -0.215,-0.27 -0.313,-0.505 -0.29,-0.703 0.022,-0.196 0.169,-0.402 0.44,-0.617 l 5.695,-4.536 -1.694,-2.127 -7.588,6.041 c -1.107,0.882 -1.214,1.879 -0.325,2.995 l 6.042,7.589 c 0.897,1.126 1.897,1.25 3.005,0.369 z"
             style="fill:#ffffff;fill-opacity:1;fill-rule:nonzero;stroke:none"
             id="path1008" /></g><g
           id="g1010"
           transform="translate(289.9079,282.7617)"><path
             d="m 0,0 -6.881,6.724 c -1.011,0.987 -1.017,1.991 -0.02,3.012 l 8.289,8.483 2.574,-2.517 -7.17,-7.338 C -3.451,8.116 -3.57,7.894 -3.568,7.695 -3.565,7.497 -3.44,7.278 -3.192,7.035 L 1.957,2.003 Z"
             style="fill:#ffffff;fill-opacity:1;fill-rule:nonzero;stroke:none"
             id="path1012" /></g><g
           id="g1014"
           transform="translate(325.7722,224.2549)"><path
             d="m 0,0 c -4.081,19.106 -12.18,36.706 -24.073,52.309 l 0.723,0.55 C -11.375,37.149 -3.221,19.428 0.889,0.189 Z"
             style="fill:#2e3192;fill-opacity:1;fill-rule:nonzero;stroke:none"
             id="path1016" /></g><g
           id="g1018"
           transform="translate(65.7473,217.7808)"><path
             d="m 0,0 c -0.055,0 -0.111,0.004 -0.167,0.014 -0.545,0.092 -0.912,0.608 -0.82,1.153 3.27,19.345 10.606,37.356 21.803,53.533 0.314,0.454 0.936,0.568 1.392,0.253 0.454,-0.315 0.567,-0.938 0.253,-1.392 C 11.432,37.627 4.206,19.887 0.985,0.833 0.902,0.345 0.479,0 0,0"
             style="fill:#ffffff;fill-opacity:1;fill-rule:nonzero;stroke:none"
             id="path1020" /></g><g
           id="g1022"
           transform="translate(93.6174,111.8252)"><path
             d="m 0,0 c -0.291,0 -0.578,0.126 -0.776,0.368 -12.474,15.32 -21.524,33.514 -26.173,52.616 -0.13,0.537 0.199,1.078 0.736,1.208 0.534,0.131 1.077,-0.198 1.208,-0.735 C -20.427,34.642 -11.512,16.721 0.775,1.632 1.124,1.203 1.059,0.573 0.631,0.225 0.445,0.073 0.222,0 0,0"
             style="fill:#ffffff;fill-opacity:1;fill-rule:nonzero;stroke:none"
             id="path1024" /></g><g
           id="g1026"
           transform="translate(300.5515,113.2471)"><path
             d="m 0,0 c -0.218,0 -0.437,0.07 -0.62,0.216 -0.433,0.343 -0.506,0.971 -0.164,1.405 12.091,15.269 20.762,33.33 25.076,52.232 0.123,0.539 0.66,0.876 1.198,0.751 0.538,-0.123 0.875,-0.659 0.752,-1.197 C 21.862,34.217 13.059,15.88 0.785,0.379 0.587,0.13 0.295,0 0,0"
             style="fill:#ffffff;fill-opacity:1;fill-rule:nonzero;stroke:none"
             id="path1028" /></g><g
           id="g1030"
           transform="translate(326.2155,223.3496)"><path
             d="m 0,0 c -0.462,0 -0.876,0.321 -0.977,0.791 -4.064,19.027 -12.129,36.553 -23.973,52.092 -0.335,0.439 -0.25,1.067 0.189,1.402 0.44,0.334 1.067,0.249 1.402,-0.19 C -11.335,38.32 -3.147,20.527 0.979,1.209 1.094,0.669 0.75,0.137 0.21,0.022 0.14,0.007 0.069,0 0,0"
             style="fill:#ffffff;fill-opacity:1;fill-rule:nonzero;stroke:none"
             id="path1032" /></g></g></g></g></svg>
